<svg xmlns="http://www.w3.org/2000/svg" width="93.719" height="92.929" viewBox="314 509 93.719 92.929"><path d="M314.705 544.858a61.827 61.827 0 0 0 16.31 14.486 86.007 86.007 0 0 0 36.403 12.668 85.84 85.84 0 0 0 19.608-.03 87.206 87.206 0 0 0 10.384-1.952l-3.5 2.438a.727.727 0 0 0-.156.065c-.486.303-.948.626-1.4.96-.826.569-1.623 1.18-2.388 1.83l.014.01a1.47 1.47 0 0 0-.18 1.722c.397.674 1.258.91 1.951.533a30.27 30.27 0 0 0 3.791-2.59l3.6-2.539a452.308 452.308 0 0 0 7.317-5.255 1.43 1.43 0 0 0 .571-1.75 1.371 1.371 0 0 0-1.644-.79c-.752.297-1.508.581-2.269.853a28.831 28.831 0 0 0-4.847-3.656 23.065 23.065 0 0 0-2.831-1.405 4.637 4.637 0 0 0-2.565-.605.895.895 0 0 0-.525 1.312 5.564 5.564 0 0 0 2.146 1.394c.832.424 1.644.889 2.459 1.351a41.895 41.895 0 0 1 3.786 2.412 73.395 73.395 0 0 1-16.25 3.225 85.604 85.604 0 0 1-37.343-5.03 83.674 83.674 0 0 1-16.818-8.533 109.368 109.368 0 0 1-14.684-11.87c-.268-.252-.667-.158-.888.071-.17.177-.236.435-.052.675Z" fill="#8082a5" fill-rule="evenodd" data-name="Combined Shape"/></svg>