<svg xmlns="http://www.w3.org/2000/svg" width="216" height="68" viewBox="294 53 216 68"><g data-name="block"><path d="M300 53h204a6 6 0 0 1 6 6v56a6 6 0 0 1-6 6H300a6 6 0 0 1-6-6V59a6 6 0 0 1 6-6z" fill="#fff" fill-rule="evenodd" data-name="Rectangle"/><path d="M309 86.9a20 20 0 1 1 0 .1z" fill="#ef6d58" fill-rule="evenodd" data-name="Oval"/><g data-name="Oval"><path d="M341 86.9a20 20 0 1 1 0 .1z" fill="#b550f8" fill-rule="evenodd"/><path d="M339 86.895a22 22 0 1 1 0 .11z" stroke-linejoin="round" stroke-linecap="round" stroke-width="4.4" stroke="#fff" fill="transparent"/></g><g data-name="Oval"><path d="M373 86.9a20 20 0 1 1 0 .1z" fill="#f7cc47" fill-rule="evenodd"/><path d="M371 86.895a22 22 0 1 1 0 .11z" stroke-linejoin="round" stroke-linecap="round" stroke-width="4.4" stroke="#fff" fill="transparent"/></g><path d="M427 73h58a2 2 0 0 1 2 2v10a2 2 0 0 1-2 2h-58a2 2 0 0 1-2-2V75a2 2 0 0 1 2-2zM428 95h45a3 3 0 0 1 3 3 3 3 0 0 1-3 3h-45a3 3 0 0 1-3-3 3 3 0 0 1 3-3z" fill="#f5ded1" fill-rule="evenodd" data-name="Rectangle"/></g></svg>