<svg xmlns="http://www.w3.org/2000/svg" width="193.321" height="89" viewBox="360 0 193.321 89"><path d="M360.112 88.288c-.27-2.716-.05-5.458.645-8.097 3.946-11.179 12.76-19.938 23.933-23.784 3.339-1.497 6.86-2.501 10.454-2.996a25.683 25.683 0 0 1 8.93-9.901 78.041 78.041 0 0 1 38.84-11.748c7.079-.621 14.187-.85 21.28-1.229 6.752-.128 13.48-.82 20.118-2.065a20.752 20.752 0 0 0 8.686-3.275 28.917 28.917 0 0 1-12.662-6.22 11.038 11.038 0 0 1-3.57-7.741 11.043 11.043 0 0 1 3.002-7.98 14.556 14.556 0 0 1 8.303-3.103c3.329-.452 6.717.13 9.707 1.669a12.712 12.712 0 0 1 5.49 13.23 17.802 17.802 0 0 1-3.704 8.29c1.432.115 2.874.153 4.317.112a57.866 57.866 0 0 0 17.628-2.562A57.176 57.176 0 0 0 548.68 3.3l-15.662.738a1.547 1.547 0 0 1-1.493-1.549c0-.836.66-1.52 1.493-1.548l18.64-.524a1.386 1.386 0 0 1 1.235.857c.11.267.133.555.075.826.357.331.461.879.227 1.332a91.684 91.684 0 0 0-6.756 13.806c-.629 1.695-3.32.918-2.657-.75a62.779 62.779 0 0 1 3.416-7.504l-.286.285a60.467 60.467 0 0 1-31.345 16 58.686 58.686 0 0 1-17.91.527 28.937 28.937 0 0 1-.471-.026 17.687 17.687 0 0 1-3.208 2.153 45.386 45.386 0 0 1-18.43 4.598c-7.012.627-14.045.827-21.071 1.201a111.33 111.33 0 0 0-40.692 7.62 34.462 34.462 0 0 0-14.957 11.497c-.06.084-.117.168-.175.252a38.318 38.318 0 0 1 5.079.11c6.125.567 11.356 4.678 13.377 10.513 1.675 5.04-.722 10.535-5.549 12.713a13.23 13.23 0 0 1-13.977-2.017 16.872 16.872 0 0 1-4.298-16.245c.178-.633.38-1.258.603-1.872a45.71 45.71 0 0 0-13.708 5.094c-10.506 5.03-17.58 15.26-18.603 26.9v.001a.734.734 0 0 1-1.466 0Zm37.178-19.196c2.204 4.465 7.289 6.69 12.046 5.27a7.777 7.777 0 0 0 5.046-4.05 8.792 8.792 0 0 0-.486-7.649 15.455 15.455 0 0 0-16.091-6.968c-.207.022-.414.046-.62.072a16.448 16.448 0 0 0 .105 13.325ZM481.57 5.507a7.235 7.235 0 0 0-1.613 7.701 11.681 11.681 0 0 0 6.047 6.603 40.245 40.245 0 0 0 9.888 3.065 20.863 20.863 0 0 0 3.013-3.626 12.016 12.016 0 0 0-.706-13.263 10.936 10.936 0 0 0-8.217-2.93 12.498 12.498 0 0 0-8.412 2.45Z" fill="#e7c4b2" fill-rule="evenodd" data-name="Combined Shape"/></svg>