<svg xmlns="http://www.w3.org/2000/svg" width="142" height="73" viewBox="0 341 142 73"><path d="M.41 414a24.695 24.695 0 0 1 0-8.96 27.174 27.174 0 0 1 8.308-16.194 28.433 28.433 0 0 1 12.856-6.654c-.086-3.1.36-6.212 1.338-9.197a38.612 38.612 0 0 1 11.077-14.473 60.076 60.076 0 0 1 39.12-12.75c4.806-.42 9.573.076 14.077 1.395a26.682 26.682 0 0 1 5.655-3.117 42.412 42.412 0 0 1 20.771-2.757c10.836.939 20.681 6.52 27.022 15.22l.328-.058v.515c.358.507.704 1.025 1.038 1.552h-12.809l10.133-1.78a25.617 25.617 0 0 0-4.247-3.389 41.674 41.674 0 0 0-31.158-9.303 30.923 30.923 0 0 0-14.078 4.001 38.068 38.068 0 0 1 15.81 11.16 15.447 15.447 0 0 1 0 17.574 15.263 15.263 0 0 1-13.848 5.858 15.913 15.913 0 0 1-12.463-9.648 19.561 19.561 0 0 1 0-16.885 26.54 26.54 0 0 1 4.238-5.81 46.252 46.252 0 0 0-20.854-1.081 54.092 54.092 0 0 0-31.504 16.194 30.254 30.254 0 0 0-5.885 14.473c-.17.584-.318 1.173-.442 1.765.147-.015.294-.03.442-.042a22.229 22.229 0 0 1 17.31 4.825 12.034 12.034 0 0 1 4.846 12.06 9.679 9.679 0 0 1-5.193 4.824 11.473 11.473 0 0 1-9.693 0 21.71 21.71 0 0 1-9.693-13.439 27.101 27.101 0 0 1-1.141-5.098 25.015 25.015 0 0 0-3.706.963 25.57 25.57 0 0 0-12.463 11.372A27.451 27.451 0 0 0 2.833 414H.41Zm24.925-21.02a19.331 19.331 0 0 0 4.847 5.859 11.453 11.453 0 0 0 7.616 3.446 7.971 7.971 0 0 0 5.266-3.267 7.896 7.896 0 0 0 1.311-6.038 12.803 12.803 0 0 0-10.04-7.236 25.032 25.032 0 0 0-9.853-1.3c-.244 2.861.04 5.755.853 8.536Zm53.312-29.979a16.15 16.15 0 0 0 4.501 13.44 12.155 12.155 0 0 0 12.463 3.1c4.77-1.3 7.957-5.77 7.616-10.681a18.945 18.945 0 0 0-8.655-13.784 46.127 46.127 0 0 0-8.932-4.13A21.002 21.002 0 0 0 78.647 363Zm62.492-12.341v.34a27.988 27.988 0 0 0 0 3.06 17.55 17.55 0 0 1 0 3.06 15.326 15.326 0 0 1 0-6.46Zm0-3.4V350.66a23.808 23.808 0 0 1 0-3.4Zm0-2.38v2.38-2.38Z" fill="#8082a5" fill-rule="evenodd" data-name="Combined Shape"/></svg>