<svg xmlns="http://www.w3.org/2000/svg" width="214" height="112" viewBox="-11249 -14464 214 112"><g data-name="CompositeLayer"><path d="M-11243-14464h202a6 6 0 0 1 6 6v100a6 6 0 0 1-6 6h-202a6 6 0 0 1-6-6v-100a6 6 0 0 1 6-6z" fill="#fff" fill-rule="evenodd" data-name="Rectangle"/><path d="M-11163-14379h56a3 3 0 0 1 3 3 3 3 0 0 1-3 3h-56a3 3 0 0 1-3-3 3 3 0 0 1 3-3zM-11163-14393h88a3 3 0 0 1 3 3 3 3 0 0 1-3 3h-88a3 3 0 0 1-3-3 3 3 0 0 1 3-3zM-11163-14407h72a3 3 0 0 1 3 3 3 3 0 0 1-3 3h-72a3 3 0 0 1-3-3 3 3 0 0 1 3-3zM-11164-14437h90a2 2 0 0 1 2 2v10a2 2 0 0 1-2 2h-90a2 2 0 0 1-2-2v-10a2 2 0 0 1 2-2z" fill="#dfe0e9" fill-rule="evenodd" data-name="Rectangle"/><path d="M-11232-14423.6a22.5 22.5 0 1 1 0 .1z" fill="#ef6d58" fill-rule="evenodd" data-name="Oval"/></g></svg>