<svg xmlns="http://www.w3.org/2000/svg" width="112" height="82" viewBox="458 80 112 82"><path d="M471.33 106.475A20.989 20.989 0 0 1 482.19 93.76a13.006 13.006 0 0 1 14.001 2.44 6.05 6.05 0 0 1 1.717 7.108 3.782 3.782 0 0 1-5.693-.43 8.12 8.12 0 0 1-.063-8.551 23.439 23.439 0 0 1 4.907-7.022 16.475 16.475 0 0 1 15.066-5.021 12.789 12.789 0 0 1 10.006 10.299 7.233 7.233 0 0 1-3.025 7.108 4.064 4.064 0 0 1-5.54-1.517 6.28 6.28 0 0 1 .505-4.53 16.278 16.278 0 0 1 1.864-3.383 19.193 19.193 0 0 1 5.89-5.298 22.38 22.38 0 0 1 15.304-2.94 15.63 15.63 0 0 1 11.631 8.11c1.681 5.126-.67 10.71-5.503 13.073a14.08 14.08 0 0 1-3.74 1.65 3.203 3.203 0 0 1-3.25-.466 3.743 3.743 0 0 1 .91-4.05 17.058 17.058 0 0 1 2.624-2.855 18.714 18.714 0 0 1 14.671-4.484 16.01 16.01 0 0 1 11.986 8.866 15.084 15.084 0 0 1-.172 14.488 15.508 15.508 0 0 1-12.035 7.251c-1.17.08-2.344 0-3.492-.236a6.116 6.116 0 0 1-3.492-1.541 2.747 2.747 0 0 1 .037-2.77 5.914 5.914 0 0 1 2.347-2.573 11.918 11.918 0 0 1 12.97 1.536 13.47 13.47 0 0 1 5.035 13.068 20.242 20.242 0 0 1-9.093 13.312 19.523 19.523 0 0 1-15.062 2.593 13.796 13.796 0 0 1-6.574-3.719 7.11 7.11 0 0 1-2.087-6.049 3.174 3.174 0 0 1 2.23-2.143 3.162 3.162 0 0 1 2.99.78 8.647 8.647 0 0 1 2.294 7.753 18.403 18.403 0 0 1-7.878 13.11 15.53 15.53 0 0 1-14.31 2.234 17.03 17.03 0 0 1-9.484-9.85 15.958 15.958 0 0 1-1.078-6.741c.082-1.181.324-2.346.718-3.461a3.673 3.673 0 0 1 2.08-2.794 2.564 2.564 0 0 1 2.515 1.886 8.248 8.248 0 0 1-.286 4.618 23.595 23.595 0 0 1-3.523 7.44 19.56 19.56 0 0 1-12.97 8.321 17.054 17.054 0 0 1-13.854-4.503 12.879 12.879 0 0 1-3.445-12.96 13.66 13.66 0 0 1 3.401-5.932 11.235 11.235 0 0 1 2.636-1.976c.474-.256.97-.47 1.48-.642a2.612 2.612 0 0 1 1.801-.268 2.705 2.705 0 0 1-.087 2.769 18.233 18.233 0 0 1-2.023 3.546 18.561 18.561 0 0 1-6.158 5.393c-2.381 1.318-5.06 2-7.78 1.98a14.085 14.085 0 0 1-7.343-2.3 13.395 13.395 0 0 1-6.447-13.055 12.636 12.636 0 0 1 10.215-9.971 6.603 6.603 0 0 1 6.859 2.588c1.489 2.786-2.865 3.647-4.712 3.628-5.205.124-9.741-3.535-10.74-8.663-.998-5.127 1.832-10.23 6.7-12.082a7.51 7.51 0 0 1 7.535.65 3.775 3.775 0 0 1 .228 5.71 3.817 3.817 0 0 1-3.033.039 3.837 3.837 0 0 1-2.11-2.185 8.4 8.4 0 0 1 2.178-8.118c.706-.82-.48-2.02-1.192-1.196a9.917 9.917 0 0 0-2.98 9.771 6.09 6.09 0 0 0 6.944 3.863 5.196 5.196 0 0 0 2.881-2.807 5.223 5.223 0 0 0 .023-4.029 7.435 7.435 0 0 0-7.692-4.363c-6.247.633-11.166 5.63-11.72 11.906-.337 6.307 3.946 11.923 10.1 13.243 2.956.881 6.153.3 8.613-1.565a3.933 3.933 0 0 0 .82-4.45 6.756 6.756 0 0 0-3.37-3.21 13.89 13.89 0 0 0-12.83 2.65 14 14 0 0 0-4.964 12.163 15.368 15.368 0 0 0 3.852 8.232 16.696 16.696 0 0 0 17.242 4.986 20.054 20.054 0 0 0 8.085-4.775 20.861 20.861 0 0 0 3.14-3.842 13.87 13.87 0 0 0 1.946-4.16 3.865 3.865 0 0 0-.827-3.887 4.597 4.597 0 0 0-4.672.157 13.78 13.78 0 0 0-6.115 5.242 15.674 15.674 0 0 0-.708 16.176 18.308 18.308 0 0 0 14.911 8.572 20.506 20.506 0 0 0 16.317-7.466 26.347 26.347 0 0 0 4.834-8.327 9.036 9.036 0 0 0-.531-9.68 4.122 4.122 0 0 0-4.488-.93 6.361 6.361 0 0 0-2.818 3.847 16.183 16.183 0 0 0-.651 8.349 19.556 19.556 0 0 0 9.339 13.379 17.061 17.061 0 0 0 16.968-.279 20.837 20.837 0 0 0 10.333-14.739 12.386 12.386 0 0 0-1.891-9.537 5.735 5.735 0 0 0-8.288-1.034 7.011 7.011 0 0 0-.622 7.891 12.845 12.845 0 0 0 6.327 5.849 21.01 21.01 0 0 0 18.056-.71 22.233 22.233 0 0 0 11.543-14.72 16.485 16.485 0 0 0-.459-9.043 15.358 15.358 0 0 0-4.925-6.705 13.933 13.933 0 0 0-15.325-2.09 6.642 6.642 0 0 0-3.563 7.299 5.182 5.182 0 0 0 3.567 2.84c1.401.467 2.866.715 4.343.737a17.466 17.466 0 0 0 14.57-7.794 16.813 16.813 0 0 0 .354-16.83 17.999 17.999 0 0 0-14.18-9.807 20.53 20.53 0 0 0-16.632 6.352c-1.898 2.033-4.732 6.061-1.776 8.465a8.193 8.193 0 0 0 8.726-1.244 15.022 15.022 0 0 0 6.23-6.98 10.86 10.86 0 0 0-.065-8.324 17.42 17.42 0 0 0-13.658-9.266 24.41 24.41 0 0 0-17.458 4.402 19.876 19.876 0 0 0-6.07 6.889 7.419 7.419 0 0 0 .041 9.023 6.118 6.118 0 0 0 7.71.092 9.246 9.246 0 0 0 2.88-8.526c-1.203-6.009-6.013-10.626-12.048-11.568a18.916 18.916 0 0 0-16.913 6.802 22.413 22.413 0 0 0-5.088 8.958 7.764 7.764 0 0 0 2.481 8.714 5.089 5.089 0 0 0 7.186-.88 7.433 7.433 0 0 0-1.484-8.487 14.35 14.35 0 0 0-16.025-3.388 21.48 21.48 0 0 0-11.65 13.9.627.627 0 0 0 1.21.334h-.002Z" fill="#8082a5" fill-rule="evenodd" data-name="Path"/></svg>