<svg xmlns="http://www.w3.org/2000/svg" width="112" height="112" viewBox="-11001 -14855.05 112 112"><g data-name="CompositeLayer"><path d="M-11001-14799.1a56 56 0 1 1 0 .1z" fill="#ef6d58" fill-rule="evenodd" data-name="Oval"/><path d="m-10942.7-14771.87-2.257-6.78a10.117 10.117 0 0 0-6.398-6.397l-6.779-2.258a1.264 1.264 0 0 1 0-2.4l6.779-2.258a10.117 10.117 0 0 0 6.398-6.398l2.257-6.78c.384-1.154 2.015-1.154 2.4 0l2.258 6.78a10.117 10.117 0 0 0 6.4 6.398l6.776 2.257c1.154.385 1.154 2.016 0 2.401l-6.78 2.258a10.117 10.117 0 0 0-6.396 6.401l-2.258 6.776a1.262 1.262 0 0 1-2.4 0Zm-13.52-31.153-1.353-4.067a6.07 6.07 0 0 0-3.84-3.84l-4.066-1.354a.759.759 0 0 1 0-1.442l4.066-1.354a6.07 6.07 0 0 0 3.84-3.84l1.353-4.067a.76.76 0 0 1 1.443 0l1.354 4.067a6.078 6.078 0 0 0 3.839 3.84l4.066 1.354a.759.759 0 0 1 0 1.442l-4.066 1.354a6.07 6.07 0 0 0-3.84 3.84l-1.353 4.067a.761.761 0 0 1-1.443 0Zm24.74-10.328-.903-2.71a4.044 4.044 0 0 0-2.562-2.562l-2.705-.902a.508.508 0 0 1 0-.96l2.708-.903a4.04 4.04 0 0 0 2.562-2.562l.9-2.705v-.004a.508.508 0 0 1 .958 0l.904 2.71a4.04 4.04 0 0 0 2.561 2.561l2.709.903a.508.508 0 0 1 0 .96l-2.709.902a4.044 4.044 0 0 0-2.561 2.562l-.904 2.71a.506.506 0 0 1-.958 0Z" fill="#fff" fill-rule="evenodd" data-name="Shape"/></g></svg>