<svg xmlns="http://www.w3.org/2000/svg" width="192.978" height="166.066" viewBox="16 76 192.978 166.066"><path d="M154.956 85.174a32.19 32.19 0 0 0-26.691-8.9 32.912 32.912 0 0 0-23.168 14.942 33.505 33.505 0 0 0-5.243 15.198l1.309-1.314a74.975 74.975 0 0 0-35.505 5.568 32.292 32.292 0 0 0-17.846 23.638 22.185 22.185 0 0 0 3.244 15.756l.87-2.145c-14.783 3.763-27.06 14.06-33.372 27.986a35.715 35.715 0 0 0-1.413 22.22 28.12 28.12 0 0 0 12.111 16.332 25.272 25.272 0 0 0 21.4 3.066l-2.006-1.14c4.328 12.841 15.395 22.219 28.74 24.353a69.243 69.243 0 0 0 44.418-5.948 76.49 76.49 0 0 0 22.044-15.694l-1.192.496c8.361.518 16.745-.52 24.73-3.059a76.005 76.005 0 0 0 20.783-9.853 46.994 46.994 0 0 0 14.498-15.215 32.352 32.352 0 0 0 4.144-18.98 25.593 25.593 0 0 0-9.846-18.55v3.005a30.66 30.66 0 0 0 11.948-26.342 29.669 29.669 0 0 0-10.786-20.084 29.492 29.492 0 0 0-21.816-6.451l1.225 2.967a17.828 17.828 0 0 0 3.74-20.488c-3.452-6.734-11.028-10.25-18.379-8.527a16.75 16.75 0 0 0-10.144 6.39 1.665 1.665 0 0 0 .59 2.256 1.681 1.681 0 0 0 2.248-.59 14.324 14.324 0 0 1 15.73-4.22c5.663 2.215 9.04 8.07 8.132 14.098a13.373 13.373 0 0 1-4.368 8.622 1.759 1.759 0 0 0-.352 1.884 1.75 1.75 0 0 0 1.577 1.084 26.898 26.898 0 0 1 23.879 9.725 25.537 25.537 0 0 1 3.715 24.9 24.841 24.841 0 0 1-8.69 11.77 1.76 1.76 0 0 0-.35 2.733c9.595 8.553 11.525 22.853 4.54 33.657a44.82 44.82 0 0 1-14.607 14.583 74.54 74.54 0 0 1-21.132 9.262 64.306 64.306 0 0 1-12.363 2.12c-2.027.133-4.062.12-6.09.054a11.29 11.29 0 0 0-3.005-.074 6.589 6.589 0 0 0-2.225 1.926 73.241 73.241 0 0 1-17.802 12.735 67.487 67.487 0 0 1-40.61 7.398c-12.014-1.114-22.68-8.17-28.434-18.806a24.931 24.931 0 0 1-1.347-4.01 1.644 1.644 0 0 0-2.006-1.14c-12.15 3.416-24.863-3.182-29.101-15.103a31.774 31.774 0 0 1 .02-20.435 38.573 38.573 0 0 1 11.521-17 55.983 55.983 0 0 1 20.478-11.094 1.481 1.481 0 0 0 .871-2.15 22.836 22.836 0 0 1 1.72-25.39 37.83 37.83 0 0 1 26.627-14.512 111.323 111.323 0 0 1 19.245-.96 1.339 1.339 0 0 0 1.309-1.31 31.4 31.4 0 0 1 12.624-22.137 30.786 30.786 0 0 1 25.126-4.878 32.888 32.888 0 0 1 13.743 6.767.699.699 0 0 0 .961-.029.704.704 0 0 0 .028-.963Z" fill="#e7c4b2" fill-rule="evenodd" data-name="Path"/></svg>