<svg xmlns="http://www.w3.org/2000/svg" width="144.921" height="143.85" viewBox="414.54 211 144.921 143.85"><path d="m74 111-17.71 34.85.515-39.088L24.93 129.39l18.62-34.372-38.74 5.223 32.46-21.781L.54 65.08l38.865-4.2L13.1 31.963l36.365 14.342L39.61 8.476l25.535 29.6L74 0l8.855 38.075L108.39 8.476l-9.854 37.83L134.9 31.962 108.596 60.88l38.864 4.2-36.73 13.38 32.461 21.78-38.74-5.222 18.62 34.372-31.876-22.628.514 39.088L74 111Z" stroke-linejoin="round" stroke-linecap="round" stroke-width="2" stroke="#6a6c8e" fill="transparent" transform="matrix(.98639 0 0 .98629 414.007 211)" data-name="Star"/></svg>